<svg xmlns="http://www.w3.org/2000/svg" viewBox="0 0 1072 839" width="1072" height="839">
	<style>
		tspan { white-space:pre }
		.shp0 { opacity: 0.102;fill: #78493c } 
		.shp1 { fill: #3f3d56 } 
		.shp2 { opacity: 0.102;fill: #000000 } 
		.shp3 { fill: #a06450 } 
		.shp4 { fill: #000000 } 
		.shp5 { fill: #1a1922 } 
		.shp6 { fill: #2f2e41 } 
		.shp7 { fill: #f86d70 } 
		.shp8 { opacity: 0.149;fill: #000000 } 
		.shp9 { fill: #fbbebe } 
		.shp10 { opacity: 0.051;fill: #000000 } 
		.shp11 { fill: #363333 } 
		.shp12 { fill: #caa79c } 
	</style>
	<path id="Layer" class="shp0" d="M1058.89 601.22C1057.78 604.05 1056.6 606.86 1055.36 609.63C1054.11 612.41 1052.81 615.16 1051.44 617.87C1050.07 620.59 1048.64 623.28 1047.14 625.93C1045.65 628.58 1044.09 631.19 1042.48 633.77C1042.48 633.85 1042.38 633.94 1042.32 634.02C1040.92 636.18 1039.26 638.15 1037.37 639.89C1035.48 641.63 1033.38 643.13 1031.11 644.35C1028.85 645.57 1026.44 646.5 1023.95 647.12C1021.45 647.74 1018.89 648.04 1016.32 648.02L88.19 648.02C20.44 648.02 -22.01 578.08 11.96 522.21C73.09 421.71 130.85 282.21 60.96 186.07C-51.27 31.48 69.61 3.43 149.35 0.22C156.99 -0.09 164.65 0.01 172.28 0.49C179.92 0.98 187.52 1.86 195.07 3.13C202.61 4.41 210.09 6.07 217.46 8.12C224.83 10.16 232.09 12.59 239.21 15.39C276.05 29.87 343.38 52.01 431.1 62.17C433.98 62.51 436.88 62.83 439.82 63.17C451.42 64.39 463.05 65.36 474.69 66.08C486.33 66.8 497.99 67.27 509.65 67.48C521.32 67.7 532.98 67.67 544.65 67.38C556.31 67.1 567.96 66.57 579.6 65.78L579.6 65.78C580.97 65.71 582.34 65.6 583.74 65.5C595.26 64.66 606.77 63.57 618.24 62.23C629.72 60.89 641.17 59.31 652.58 57.48C663.99 55.65 675.35 53.58 686.67 51.26C697.99 48.94 709.26 46.38 720.47 43.58C723.38 42.85 726.25 42.16 729.1 41.47C878.74 5.71 1016.68 127.56 982.19 265.22C969.44 316.16 972.68 370.45 1015.19 414.36C1084.74 486.14 1076.31 556.74 1058.89 601.22Z" />
	<path id="Layer" class="shp1" d="M905.87 613.57L918 613.57C921.28 613.57 924.53 614.22 927.57 615.47C930.6 616.73 933.36 618.57 935.68 620.89C938 623.21 939.84 625.97 941.1 629C942.35 632.04 943 635.29 943 638.57L943 675.68L880.87 675.68L880.87 638.57C880.87 635.29 881.52 632.04 882.77 629C884.03 625.97 885.87 623.21 888.19 620.89C890.51 618.57 893.27 616.73 896.3 615.47C899.34 614.22 902.59 613.57 905.87 613.57Z" />
	<path id="Layer" class="shp2" d="M905.87 613.57L918 613.57C921.28 613.57 924.53 614.22 927.57 615.47C930.6 616.73 933.36 618.57 935.68 620.89C938 623.21 939.84 625.97 941.1 629C942.35 632.04 943 635.29 943 638.57L943 675.68L880.87 675.68L880.87 638.57C880.87 635.29 881.52 632.04 882.77 629C884.03 625.97 885.87 623.21 888.19 620.89C890.51 618.57 893.27 616.73 896.3 615.47C899.34 614.22 902.59 613.57 905.87 613.57Z" />
	<path id="Layer" class="shp1" d="M909.44 627.24C906.69 627.24 904.47 625.02 904.47 622.27C904.47 619.52 906.69 617.3 909.44 617.3C912.19 617.3 914.41 619.52 914.41 622.27C914.41 625.02 912.19 627.24 909.44 627.24Z" />
	<path id="Layer" class="shp1" d="M909.44 621.03C906.69 621.03 904.47 618.81 904.47 616.06C904.47 613.31 906.69 611.09 909.44 611.09C912.19 611.09 914.41 613.31 914.41 616.06C914.41 618.81 912.19 621.03 909.44 621.03Z" />
	<path id="Layer" class="shp1" d="M909.44 614.82C906.69 614.82 904.47 612.6 904.47 609.85C904.47 607.1 906.69 604.88 909.44 604.88C912.19 604.88 914.41 607.1 914.41 609.85C914.41 612.6 912.19 614.82 909.44 614.82Z" />
	<path id="Layer" class="shp1" d="M909.44 608.6C906.69 608.6 904.47 606.38 904.47 603.63C904.47 600.88 906.69 598.66 909.44 598.66C912.19 598.66 914.41 600.88 914.41 603.63C914.41 606.38 912.19 608.6 909.44 608.6Z" />
	<path id="Layer" class="shp1" d="M909.44 602.39C906.69 602.39 904.47 600.17 904.47 597.42C904.47 594.67 906.69 592.45 909.44 592.45C912.19 592.45 914.41 594.67 914.41 597.42C914.41 600.17 912.19 602.39 909.44 602.39Z" />
	<path id="Layer" class="shp1" d="M909.44 596.18C906.69 596.18 904.47 593.96 904.47 591.21C904.47 588.46 906.69 586.24 909.44 586.24C912.19 586.24 914.41 588.46 914.41 591.21C914.41 593.96 912.19 596.18 909.44 596.18Z" />
	<path id="Layer" class="shp1" d="M909.44 589.97C906.69 589.97 904.47 587.75 904.47 585C904.47 582.25 906.69 580.03 909.44 580.03C912.19 580.03 914.41 582.25 914.41 585C914.41 587.75 912.19 589.97 909.44 589.97Z" />
	<path id="Layer" class="shp1" d="M916.9 592.46C914.15 592.46 911.93 590.24 911.93 587.49C911.93 584.74 914.15 582.52 916.9 582.52C919.65 582.52 921.87 584.74 921.87 587.49C921.87 590.24 919.65 592.46 916.9 592.46Z" />
	<path id="Layer" class="shp1" d="M921.87 589.97C919.12 589.97 916.9 587.75 916.9 585C916.9 582.25 919.12 580.03 921.87 580.03C924.62 580.03 926.84 582.25 926.84 585C926.84 587.75 924.62 589.97 921.87 589.97Z" />
	<path id="Layer" class="shp1" d="M926.83 587.49C924.08 587.49 921.86 585.27 921.86 582.52C921.86 579.77 924.08 577.55 926.83 577.55C929.58 577.55 931.8 579.77 931.8 582.52C931.8 585.27 929.58 587.49 926.83 587.49Z" />
	<path id="Layer" class="shp1" d="M909.44 583.76C906.69 583.76 904.47 581.54 904.47 578.79C904.47 576.04 906.69 573.82 909.44 573.82C912.19 573.82 914.41 576.04 914.41 578.79C914.41 581.54 912.19 583.76 909.44 583.76Z" />
	<path id="Layer" class="shp1" d="M909.44 577.55C906.69 577.55 904.47 575.33 904.47 572.58C904.47 569.83 906.69 567.61 909.44 567.61C912.19 567.61 914.41 569.83 914.41 572.58C914.41 575.33 912.19 577.55 909.44 577.55Z" />
	<path id="Layer" class="shp1" d="M909.44 571.34C906.69 571.34 904.47 569.12 904.47 566.37C904.47 563.62 906.69 561.4 909.44 561.4C912.19 561.4 914.41 563.62 914.41 566.37C914.41 569.12 912.19 571.34 909.44 571.34Z" />
	<path id="Layer" class="shp1" d="M909.44 565.13C906.69 565.13 904.47 562.91 904.47 560.16C904.47 557.41 906.69 555.19 909.44 555.19C912.19 555.19 914.41 557.41 914.41 560.16C914.41 562.91 912.19 565.13 909.44 565.13Z" />
	<path id="Layer" class="shp3" d="M930.04 544.13C928.81 544.31 927.57 544.44 926.33 544.52C926.62 544.27 926.9 544.01 927.18 543.74C927.46 543.48 927.73 543.21 928 542.93C928.27 542.66 928.53 542.38 928.79 542.09C929.04 541.81 929.3 541.52 929.54 541.22C929.37 540.7 929.17 540.19 928.96 539.68C928.75 539.17 928.52 538.68 928.27 538.19C928.02 537.7 927.75 537.22 927.46 536.76C927.17 536.29 926.86 535.83 926.54 535.39C926.23 535.56 925.92 535.72 925.59 535.86C925.27 536 924.94 536.12 924.61 536.23C924.27 536.33 923.93 536.42 923.58 536.49C923.24 536.56 922.89 536.62 922.54 536.65C921.31 536.83 920.07 536.97 918.83 537.05C919.25 536.65 919.66 536.25 920.06 535.85C920.47 535.44 920.87 535.03 921.27 534.61C921.66 534.19 922.05 533.77 922.44 533.34C922.83 532.92 923.21 532.49 923.58 532.05C916.18 525.37 905.13 524.78 897.06 530.63C888.99 536.47 886.11 547.16 890.15 556.27C894.2 565.38 904.06 570.42 913.81 568.35C923.55 566.29 930.53 557.69 930.54 547.73C930.54 547.43 930.53 547.12 930.52 546.82C930.51 546.51 930.49 546.21 930.46 545.91C930.43 545.61 930.4 545.3 930.36 545C930.32 544.7 930.27 544.4 930.22 544.1L930.04 544.13Z" />
	<path id="Layer" class="shp3" d="M946.65 568.82C946.33 569.01 946.01 569.19 945.67 569.35C945.34 569.5 944.99 569.64 944.64 569.76C944.29 569.88 943.93 569.97 943.57 570.05C943.21 570.13 942.84 570.18 942.47 570.22C941.24 570.4 940 570.53 938.76 570.61C939.09 570.31 939.41 570.01 939.73 569.71C940.05 569.4 940.36 569.09 940.67 568.77C940.98 568.45 941.28 568.12 941.57 567.79C941.87 567.47 942.16 567.13 942.44 566.79C936.23 565.17 929.81 568.54 927.61 574.57C925.42 580.6 928.17 587.31 933.96 590.06C939.76 592.82 946.7 590.71 949.99 585.2C953.27 579.69 951.83 572.58 946.65 568.79L946.65 568.82Z" />
	<path id="Layer" class="shp1" d="M901.99 592.46C899.24 592.46 897.02 590.24 897.02 587.49C897.02 584.74 899.24 582.52 901.99 582.52C904.74 582.52 906.96 584.74 906.96 587.49C906.96 590.24 904.74 592.46 901.99 592.46Z" />
	<path id="Layer" class="shp1" d="M897.02 589.97C894.27 589.97 892.05 587.75 892.05 585C892.05 582.25 894.27 580.03 897.02 580.03C899.77 580.03 901.99 582.25 901.99 585C901.99 587.75 899.77 589.97 897.02 589.97Z" />
	<path id="Layer" class="shp1" d="M892.05 587.49C889.3 587.49 887.08 585.27 887.08 582.52C887.08 579.77 889.3 577.55 892.05 577.55C894.8 577.55 897.02 579.77 897.02 582.52C897.02 585.27 894.8 587.49 892.05 587.49Z" />
	<path id="Layer" class="shp3" d="M872.24 568.82C872.56 569.01 872.88 569.19 873.22 569.35C873.55 569.5 873.9 569.64 874.25 569.76C874.6 569.88 874.96 569.97 875.32 570.05C875.68 570.13 876.05 570.18 876.42 570.22C877.65 570.4 878.89 570.53 880.13 570.61C879.8 570.32 879.48 570.01 879.16 569.71C878.84 569.4 878.53 569.09 878.22 568.77C877.91 568.45 877.61 568.13 877.32 567.8C877.02 567.47 876.73 567.13 876.45 566.79C882.66 565.17 889.08 568.54 891.28 574.57C893.47 580.6 890.72 587.31 884.93 590.06C879.13 592.82 872.19 590.71 868.9 585.2C865.62 579.69 867.06 572.58 872.24 568.79L872.24 568.82Z" />
	<path id="Layer" class="shp1" d="M905.87 617.3L918 617.3C921.28 617.3 924.53 617.95 927.57 619.2C930.6 620.46 933.36 622.3 935.68 624.62C938 626.94 939.84 629.7 941.1 632.73C942.35 635.77 943 639.02 943 642.3L943 675.17C943 675.73 942.89 676.28 942.68 676.79C942.46 677.31 942.15 677.77 941.76 678.17C941.36 678.56 940.9 678.87 940.38 679.09C939.87 679.3 939.32 679.41 938.76 679.41L885.11 679.41C884.55 679.41 884 679.3 883.49 679.09C882.97 678.87 882.51 678.56 882.11 678.17C881.72 677.77 881.41 677.31 881.19 676.79C880.98 676.28 880.87 675.73 880.87 675.17L880.87 642.3C880.87 639.02 881.52 635.77 882.77 632.73C884.03 629.7 885.87 626.94 888.19 624.62C890.51 622.3 893.27 620.46 896.3 619.2C899.34 617.95 902.59 617.3 905.87 617.3Z" />
	<g id="Layer" style="opacity: 0.102">
		<path id="Layer" class="shp4" d="M930.42 545.49C930.29 545.62 930.17 545.76 930.04 545.89C929.91 546.02 929.78 546.15 929.64 546.27C929.51 546.4 929.37 546.52 929.24 546.65C929.1 546.77 928.96 546.89 928.82 547.01C929.39 547.01 929.95 546.92 930.52 546.86C930.54 546.4 930.47 545.94 930.42 545.49Z" />
		<path id="Layer" class="shp4" d="M921.36 539.55C922.61 539.47 923.84 539.34 925.08 539.16C925.36 539.12 925.63 539.08 925.91 539.03C926.18 538.97 926.46 538.91 926.73 538.83C927 538.76 927.26 538.68 927.53 538.58C927.79 538.49 928.05 538.39 928.31 538.28C928.18 538.03 928.05 537.78 927.92 537.54C927.78 537.29 927.64 537.05 927.5 536.81C927.35 536.57 927.2 536.34 927.05 536.1C926.89 535.87 926.73 535.64 926.57 535.41C926.41 535.5 926.26 535.59 926.09 535.68C925.93 535.76 925.77 535.84 925.6 535.91C925.43 535.98 925.26 536.04 925.09 536.1C924.92 536.16 924.75 536.21 924.57 536.26C924.32 536.55 924.07 536.85 923.82 537.13C923.56 537.41 923.3 537.69 923.03 537.97C922.76 538.24 922.49 538.51 922.21 538.78C921.93 539.04 921.65 539.3 921.36 539.55L921.36 539.55Z" />
		<path id="Layer" class="shp4" d="M890.81 550.22C890.8 546.43 891.82 542.71 893.75 539.44C895.68 536.18 898.45 533.5 901.78 531.68C905.11 529.86 908.86 528.98 912.65 529.11C916.44 529.25 920.12 530.41 923.31 532.46L923.63 532.12C919.43 528.38 913.91 526.48 908.3 526.82C902.69 527.17 897.45 529.75 893.74 533.97C890.03 538.2 888.17 543.73 888.55 549.34C888.94 554.95 891.56 560.17 895.81 563.85C895.01 562.91 894.29 561.9 893.67 560.83C893.05 559.76 892.52 558.64 892.09 557.48C891.67 556.32 891.35 555.12 891.13 553.91C890.92 552.69 890.81 551.46 890.81 550.22L890.81 550.22Z" />
	</g>
	<g id="Layer" style="opacity: 0.102">
		<path id="Layer" class="shp4" d="M938.76 573.09C940 573.01 941.24 572.88 942.47 572.7C942.84 572.67 943.21 572.61 943.57 572.53C943.93 572.46 944.29 572.36 944.64 572.24C944.99 572.12 945.34 571.99 945.67 571.83C946.01 571.67 946.33 571.49 946.65 571.3C947.35 571.82 947.99 572.4 948.57 573.05C949.15 573.7 949.66 574.41 950.09 575.17C950.52 575.92 950.86 576.72 951.13 577.55C951.39 578.38 951.57 579.23 951.65 580.1C951.66 579.99 951.67 579.88 951.68 579.77C951.69 579.66 951.7 579.56 951.7 579.45C951.71 579.34 951.71 579.23 951.72 579.12C951.72 579.01 951.72 578.9 951.72 578.79C951.72 577.82 951.62 576.86 951.4 575.91C951.18 574.97 950.85 574.06 950.41 573.19C949.98 572.33 949.45 571.52 948.83 570.77C948.2 570.03 947.5 569.37 946.72 568.79C946.4 568.98 946.08 569.16 945.74 569.32C945.41 569.47 945.06 569.61 944.71 569.73C944.36 569.85 944 569.94 943.64 570.02C943.28 570.1 942.91 570.15 942.54 570.19L941.54 570.31C941.33 570.56 941.11 570.8 940.89 571.04C940.66 571.29 940.44 571.52 940.2 571.75C939.97 571.99 939.74 572.21 939.49 572.44C939.25 572.66 939.01 572.88 938.76 573.09Z" />
		<path id="Layer" class="shp4" d="M939.26 568.85C939.36 568.85 939.47 568.85 939.57 568.86C939.67 568.86 939.78 568.87 939.88 568.88C939.98 568.88 940.09 568.89 940.19 568.9C940.29 568.91 940.4 568.93 940.5 568.94C941.15 568.25 941.79 567.51 942.44 566.79C940.6 566.3 938.67 566.24 936.81 566.61C934.94 566.98 933.19 567.78 931.68 568.94C930.17 570.1 928.95 571.59 928.11 573.3C927.27 575.01 926.84 576.89 926.84 578.79C926.84 579.21 926.84 579.62 926.9 580.03C927.05 578.51 927.48 577.03 928.17 575.67C928.86 574.31 929.79 573.08 930.93 572.06C932.06 571.03 933.37 570.23 934.79 569.68C936.22 569.13 937.73 568.85 939.26 568.85L939.26 568.85Z" />
	</g>
	<g id="Layer" style="opacity: 0.102">
		<path id="Layer" class="shp4" d="M880.13 573.09C878.89 573.01 877.65 572.88 876.42 572.7C876.05 572.67 875.68 572.61 875.32 572.53C874.96 572.46 874.6 572.36 874.25 572.24C873.9 572.12 873.55 571.99 873.22 571.83C872.88 571.67 872.56 571.49 872.24 571.3C871.54 571.82 870.9 572.4 870.32 573.05C869.74 573.7 869.23 574.41 868.8 575.17C868.37 575.92 868.03 576.72 867.76 577.55C867.5 578.38 867.32 579.23 867.24 580.1C867.23 579.99 867.22 579.88 867.21 579.77C867.2 579.66 867.19 579.56 867.19 579.45C867.18 579.34 867.18 579.23 867.17 579.12C867.17 579.01 867.17 578.9 867.17 578.79C867.17 577.82 867.27 576.86 867.49 575.91C867.71 574.97 868.04 574.06 868.48 573.19C868.91 572.33 869.44 571.52 870.06 570.77C870.69 570.03 871.39 569.37 872.17 568.79C872.49 568.98 872.81 569.16 873.15 569.32C873.48 569.47 873.83 569.61 874.18 569.73C874.53 569.85 874.89 569.94 875.25 570.02C875.61 570.1 875.98 570.15 876.35 570.19L877.35 570.31C877.56 570.56 877.78 570.81 878 571.05C878.22 571.29 878.45 571.53 878.68 571.76C878.91 571.99 879.15 572.22 879.39 572.44C879.63 572.66 879.88 572.88 880.13 573.09Z" />
		<path id="Layer" class="shp4" d="M879.63 568.85C879.53 568.85 879.42 568.85 879.32 568.86C879.21 568.86 879.11 568.87 879 568.88C878.9 568.88 878.8 568.89 878.69 568.9C878.59 568.91 878.48 568.93 878.38 568.94C877.74 568.25 877.1 567.51 876.45 566.79C878.29 566.3 880.22 566.24 882.08 566.61C883.95 566.98 885.7 567.78 887.21 568.94C888.72 570.1 889.94 571.59 890.78 573.3C891.62 575.01 892.05 576.89 892.05 578.79C892.05 579.21 892.05 579.62 891.99 580.03C891.84 578.51 891.41 577.03 890.72 575.67C890.03 574.31 889.1 573.08 887.96 572.06C886.83 571.03 885.52 570.23 884.1 569.68C882.67 569.13 881.16 568.85 879.63 568.85Z" />
	</g>
	<path id="Layer" class="shp5" d="M218.08 532.09L66.08 532.09C65.23 532.09 64.39 531.92 63.61 531.6C62.82 531.27 62.11 530.8 61.51 530.2C60.91 529.6 60.44 528.89 60.11 528.1C59.79 527.32 59.62 526.48 59.62 525.63L59.62 453.72C59.62 452.63 59.89 451.56 60.42 450.6C60.94 449.65 61.7 448.84 62.63 448.26C63.55 447.67 64.6 447.34 65.69 447.27C66.78 447.21 67.87 447.42 68.85 447.89C112.54 468.61 159.54 475.72 215.18 448.22C216.17 447.73 217.26 447.5 218.36 447.55C219.46 447.59 220.53 447.92 221.47 448.5C222.4 449.08 223.18 449.89 223.71 450.85C224.25 451.81 224.54 452.89 224.54 453.99L224.54 525.65C224.54 526.5 224.37 527.33 224.04 528.12C223.72 528.9 223.24 529.61 222.64 530.2C222.04 530.8 221.33 531.28 220.55 531.6C219.77 531.92 218.93 532.09 218.08 532.09L218.08 532.09Z" />
	<path id="Layer" class="shp2" d="M218.08 532.09L66.08 532.09C65.23 532.09 64.39 531.92 63.61 531.6C62.82 531.27 62.11 530.8 61.51 530.2C60.91 529.6 60.44 528.89 60.11 528.1C59.79 527.32 59.62 526.48 59.62 525.63L59.62 453.72C59.62 452.63 59.89 451.56 60.42 450.6C60.94 449.65 61.7 448.84 62.63 448.26C63.55 447.67 64.6 447.34 65.69 447.27C66.78 447.21 67.87 447.42 68.85 447.89C112.54 468.61 159.54 475.72 215.18 448.22C216.17 447.73 217.26 447.5 218.36 447.55C219.46 447.59 220.53 447.92 221.47 448.5C222.4 449.08 223.18 449.89 223.71 450.85C224.25 451.81 224.54 452.89 224.54 453.99L224.54 525.65C224.54 526.5 224.37 527.33 224.04 528.12C223.72 528.9 223.24 529.61 222.64 530.2C222.04 530.8 221.33 531.28 220.55 531.6C219.77 531.92 218.93 532.09 218.08 532.09L218.08 532.09Z" />
	<path id="Layer" class="shp1" d="M141.03 477.39C136.05 477.39 132.03 472.12 132.03 465.61C132.03 459.1 136.05 453.83 141.03 453.83C146.01 453.83 150.03 459.1 150.03 465.61C150.03 472.12 146.01 477.39 141.03 477.39Z" />
	<path id="Layer" class="shp1" d="M141.03 462.99C136.05 462.99 132.03 457.72 132.03 451.21C132.03 444.7 136.05 439.43 141.03 439.43C146.01 439.43 150.03 444.7 150.03 451.21C150.03 457.72 146.01 462.99 141.03 462.99Z" />
	<path id="Layer" class="shp1" d="M141.03 448.59C136.05 448.59 132.03 443.32 132.03 436.81C132.03 430.3 136.05 425.03 141.03 425.03C146.01 425.03 150.03 430.3 150.03 436.81C150.03 443.32 146.01 448.59 141.03 448.59Z" />
	<path id="Layer" class="shp1" d="M141.03 434.19C136.05 434.19 132.03 428.92 132.03 422.41C132.03 415.9 136.05 410.63 141.03 410.63C146.01 410.63 150.03 415.9 150.03 422.41C150.03 428.92 146.01 434.19 141.03 434.19Z" />
	<path id="Layer" class="shp1" d="M141.03 419.79C136.05 419.79 132.03 414.52 132.03 408.01C132.03 401.5 136.05 396.23 141.03 396.23C146.01 396.23 150.03 401.5 150.03 408.01C150.03 414.52 146.01 419.79 141.03 419.79Z" />
	<path id="Layer" class="shp1" d="M141.03 405.39C136.05 405.39 132.03 400.12 132.03 393.61C132.03 387.1 136.05 381.83 141.03 381.83C146.01 381.83 150.03 387.1 150.03 393.61C150.03 400.12 146.01 405.39 141.03 405.39Z" />
	<path id="Layer" class="shp1" d="M141.03 390.99C136.05 390.99 132.03 385.72 132.03 379.21C132.03 372.7 136.05 367.43 141.03 367.43C146.01 367.43 150.03 372.7 150.03 379.21C150.03 385.72 146.01 390.99 141.03 390.99Z" />
	<path id="Layer" class="shp3" d="M174.72 280.67C175.03 280.28 175.33 279.88 175.62 279.48C175.92 279.08 176.2 278.67 176.48 278.26C176.76 277.85 177.03 277.43 177.3 277.01C177.56 276.59 177.82 276.16 178.07 275.73L154.42 271.85L180 272.04C181.22 269.38 182.17 266.6 182.83 263.74C183.49 260.89 183.86 257.97 183.93 255.04C184 252.12 183.77 249.19 183.25 246.3C182.73 243.42 181.91 240.6 180.82 237.88L146.54 255.68L178.18 232.42C172.18 222.08 162.16 214.69 150.5 212.02C138.84 209.36 126.6 211.65 116.7 218.36C106.81 225.07 100.14 235.59 98.29 247.4C96.45 259.22 99.6 271.26 106.98 280.67C106.5 281.28 106.04 281.9 105.59 282.53C105.15 283.17 104.72 283.81 104.31 284.47C103.9 285.12 103.5 285.79 103.13 286.47C102.75 287.15 102.4 287.83 102.06 288.53L132.76 304.48L100.03 293.48C98.88 296.86 98.16 300.38 97.88 303.94C97.6 307.5 97.77 311.08 98.37 314.61C98.98 318.13 100.02 321.56 101.47 324.83C102.92 328.09 104.77 331.16 106.98 333.97C96.78 346.94 94.88 364.61 102.09 379.46C109.3 394.3 124.36 403.73 140.87 403.73C157.37 403.73 172.43 394.3 179.64 379.46C186.85 364.61 184.95 346.94 174.75 333.97C177.72 330.2 180.03 325.95 181.6 321.42C183.17 316.88 183.97 312.11 183.97 307.32C183.97 302.52 183.17 297.75 181.6 293.21C180.03 288.68 177.72 284.43 174.75 280.66L174.72 280.67Z" />
	<path id="Layer" class="shp2" d="M97.72 307.32C97.72 309.72 97.92 312.11 98.31 314.47C98.71 316.84 99.3 319.16 100.09 321.43C100.87 323.69 101.84 325.89 102.99 327.99C104.14 330.09 105.47 332.1 106.95 333.98C96.75 346.95 94.85 364.62 102.06 379.47C109.27 394.31 124.33 403.74 140.84 403.74C157.34 403.74 172.4 394.31 179.61 379.47C186.82 364.62 184.92 346.95 174.72 333.98C180.54 326.64 97.72 302.48 97.72 307.32Z" />
	<path id="Layer" class="shp6" d="M218.08 535.9L66.08 535.9C65.23 535.9 64.39 535.73 63.61 535.4C62.82 535.08 62.11 534.6 61.51 534C60.91 533.4 60.44 532.69 60.11 531.9C59.79 531.12 59.62 530.28 59.62 529.43L59.62 453.72C59.62 452.63 59.89 451.56 60.42 450.6C60.94 449.65 61.7 448.84 62.63 448.26C63.55 447.67 64.6 447.34 65.69 447.27C66.78 447.21 67.87 447.42 68.85 447.89C112.52 468.61 147.15 492.76 215.18 448.2C219.18 445.57 224.54 449.2 224.54 453.97L224.54 529.43C224.54 530.28 224.37 531.12 224.05 531.9C223.72 532.69 223.25 533.4 222.65 534C222.05 534.6 221.34 535.08 220.55 535.4C219.77 535.73 218.93 535.9 218.08 535.9L218.08 535.9Z" />
	<path id="Layer" class="shp7" d="M289.84 694.11L311.4 729.28C311.4 729.28 362.45 751.97 424.85 694.11C487.25 636.25 424.85 586.34 424.85 586.34L348.85 605.92L289.84 694.11Z" />
	<path id="Layer" class="shp8" d="M289.84 694.11L311.4 729.28C311.4 729.28 362.45 751.97 424.85 694.11C487.25 636.25 424.85 586.34 424.85 586.34L348.85 605.92L289.84 694.11Z" />
	<path id="Layer" class="shp9" d="M389.45 786.22L359.77 798.75C328.6 811.92 297.38 825.11 265.18 835.52C256.35 838.38 245.66 840.69 238.63 834.64C231.6 828.59 232.32 817.46 236.04 809.05C237.42 805.93 239.14 802.92 239.82 799.58C240.72 795.18 239.73 790.64 239.07 786.19C238.07 779.38 237.89 772.32 239.77 765.7C241.65 759.08 245.77 752.9 251.87 749.64C256.36 747.22 262.62 746.84 266.03 750.64C268.82 753.74 268.78 758.47 270.79 762.13C273.46 766.97 279.46 769.2 284.98 768.96C290.5 768.72 295.71 766.44 300.78 764.21C340.9 746.54 381.19 728.77 418.23 705.31C424.64 701.26 430.96 697.02 437.71 693.57C439.33 692.74 440.98 691.95 442.64 691.21C444.31 690.47 446 689.78 447.7 689.14C449.41 688.49 451.13 687.9 452.87 687.35C454.61 686.8 456.36 686.31 458.13 685.86C458.32 685.79 458.51 685.73 458.71 685.69C458.91 685.65 459.12 685.63 459.32 685.63C459.52 685.63 459.73 685.65 459.93 685.69C460.13 685.73 460.32 685.79 460.51 685.86C460.7 686.01 460.87 686.19 461.02 686.38C461.18 686.57 461.31 686.77 461.41 686.99C461.52 687.21 461.6 687.44 461.66 687.68C461.72 687.91 461.75 688.16 461.75 688.4C463.28 698.15 464.81 707.91 465.7 717.74C466.4 725.45 469.03 739.04 466.02 746.36C463.55 752.36 450.58 757.36 445.02 760.46C436.66 765.05 428.08 769.24 419.41 773.21C409.48 777.75 399.47 781.99 389.45 786.22Z" />
	<path id="Layer" class="shp10" d="M389.45 786.22L359.77 798.75C328.6 811.92 297.38 825.11 265.18 835.52C256.35 838.38 245.66 840.69 238.63 834.64C231.6 828.59 232.32 817.46 236.04 809.05C237.42 805.93 239.14 802.92 239.82 799.58C240.72 795.18 239.73 790.64 239.07 786.19C238.07 779.38 237.89 772.32 239.77 765.7C241.65 759.08 245.77 752.9 251.87 749.64C256.36 747.22 262.62 746.84 266.03 750.64C268.82 753.74 268.78 758.47 270.79 762.13C273.46 766.97 279.46 769.2 284.98 768.96C290.5 768.72 295.71 766.44 300.78 764.21C340.9 746.54 381.19 728.77 418.23 705.31C424.64 701.26 430.96 697.02 437.71 693.57C439.33 692.74 440.98 691.95 442.64 691.21C444.31 690.47 446 689.78 447.7 689.14C449.41 688.49 451.13 687.9 452.87 687.35C454.61 686.8 456.36 686.31 458.13 685.86C458.32 685.79 458.51 685.73 458.71 685.69C458.91 685.65 459.12 685.63 459.32 685.63C459.52 685.63 459.73 685.65 459.93 685.69C460.13 685.73 460.32 685.79 460.51 685.86C460.7 686.01 460.87 686.19 461.02 686.38C461.18 686.57 461.31 686.77 461.41 686.99C461.52 687.21 461.6 687.44 461.66 687.68C461.72 687.91 461.75 688.16 461.75 688.4C463.28 698.15 464.81 707.91 465.7 717.74C466.4 725.45 469.03 739.04 466.02 746.36C463.55 752.36 450.58 757.36 445.02 760.46C436.66 765.05 428.08 769.24 419.41 773.21C409.48 777.75 399.47 781.99 389.45 786.22Z" />
	<path id="Layer" class="shp9" d="M387.69 728.34C382.04 733.42 375.88 738 371.02 743.83C365.13 750.9 361.41 759.5 358.19 768.12C357.34 770.41 356.51 772.71 355.71 775.02C354.92 777.32 354.15 779.64 353.41 781.97C352.68 784.3 351.97 786.64 351.29 788.99C350.61 791.33 349.97 793.69 349.35 796.05C347.28 803.93 345.47 812.11 340.9 818.85C336.33 825.59 328.15 830.65 320.19 828.85C313.24 827.32 308.26 821.15 305.07 814.78C301.88 808.41 299.83 801.42 295.69 795.62C291.06 789.22 283.84 784.22 281.62 776.55C279.28 768.49 283.49 759.55 290.05 754.37C296.61 749.19 305.05 746.92 313.35 745.64C313.58 745.62 313.8 745.59 314.03 745.55C314.25 745.51 314.47 745.46 314.69 745.4C314.91 745.33 315.12 745.25 315.34 745.17C315.55 745.08 315.75 744.98 315.95 744.87C317.78 743.69 317.95 741.11 317.88 738.93C317.74 731.23 317.83 723.53 318.14 715.83C318.46 708.14 319.01 700.46 319.79 692.8C320.57 685.13 321.57 677.5 322.81 669.9C324.04 662.3 325.5 654.73 327.19 647.22C329.19 638.22 331.57 629.22 335.93 621.22C343.79 606.68 359.76 595.41 376.13 597.68C388.13 599.34 398.41 607.97 404.52 618.47C410.63 628.97 413.1 641.17 414.46 653.24C415.82 665.31 419.37 684.78 413.53 695.83C411.87 698.88 410.07 701.87 408.15 704.76C406.23 707.66 404.18 710.48 402.02 713.2C399.85 715.93 397.57 718.55 395.18 721.08C392.79 723.61 390.29 726.03 387.69 728.34Z" />
	<path id="Layer" class="shp9" d="M578.07 292.7C577.07 300.46 576.29 308.97 580.54 315.55C583.13 319.55 587.27 322.31 591.36 324.78C592.85 325.68 594.34 326.55 595.85 327.41C597.36 328.26 598.88 329.1 600.41 329.91C601.95 330.73 603.49 331.52 605.04 332.29C606.59 333.07 608.16 333.82 609.73 334.55C609.91 334.61 610.09 334.69 610.26 334.78C610.43 334.87 610.59 334.97 610.74 335.09C610.89 335.2 611.04 335.33 611.17 335.47C611.31 335.61 611.43 335.75 611.54 335.91C611.62 336.13 611.68 336.35 611.72 336.58C611.76 336.81 611.77 337.04 611.77 337.27C611.76 337.5 611.73 337.73 611.68 337.96C611.63 338.19 611.56 338.41 611.47 338.62C609.61 344.94 607.65 351.23 605.58 357.48C603.5 363.74 601.33 369.96 599.04 376.14C596.76 382.32 594.37 388.46 591.88 394.55C589.39 400.65 586.8 406.71 584.1 412.72C583.97 413.08 583.82 413.43 583.65 413.77C583.48 414.11 583.29 414.44 583.08 414.76C582.87 415.08 582.64 415.38 582.4 415.67C582.15 415.96 581.89 416.24 581.61 416.5C581.3 416.71 580.98 416.9 580.65 417.07C580.32 417.24 579.98 417.39 579.63 417.52C579.28 417.65 578.92 417.76 578.56 417.85C578.2 417.93 577.83 418 577.46 418.04C570.15 419.39 562.74 420.08 555.31 420.09C547.88 420.09 540.46 419.43 533.15 418.1C525.84 416.76 518.67 414.77 511.72 412.14C504.77 409.51 498.07 406.25 491.71 402.41C490.93 401.96 490.17 401.49 489.42 401C488.67 400.5 487.94 399.99 487.23 399.45C486.51 398.91 485.81 398.35 485.13 397.77C484.45 397.19 483.78 396.58 483.14 395.96C482.55 395.34 481.98 394.69 481.43 394.03C480.88 393.36 480.35 392.68 479.85 391.98C479.35 391.28 478.87 390.56 478.42 389.83C477.97 389.1 477.54 388.35 477.14 387.59C465.14 365.79 466.52 339.39 468.21 314.59C469.95 314.76 471.69 314.86 473.43 314.89C475.18 314.92 476.93 314.88 478.67 314.76C480.41 314.65 482.14 314.46 483.87 314.2C485.6 313.95 487.31 313.62 489.01 313.22C489.85 313.05 490.68 312.85 491.5 312.6C492.33 312.36 493.14 312.08 493.93 311.76C494.73 311.45 495.51 311.09 496.27 310.71C497.04 310.32 497.78 309.9 498.51 309.44C504.16 305.62 507.19 299.03 509.67 292.67C510.62 290.22 511.53 287.75 512.4 285.26C513.27 282.78 514.1 280.28 514.88 277.76C515.67 275.25 516.41 272.73 517.11 270.19C517.81 267.65 518.47 265.1 519.08 262.54C519.96 258.88 561 266.24 565.13 267.16C569.68 268.16 580.52 268.85 582 274.16C583.3 278.73 578.74 287.8 578.07 292.7Z" />
	<path id="Layer" class="shp10" d="M578.07 292.7C577.07 300.46 576.29 308.97 580.54 315.55C583.13 319.55 587.27 322.31 591.36 324.78C592.85 325.68 594.34 326.55 595.85 327.41C597.36 328.26 598.88 329.1 600.41 329.91C601.95 330.73 603.49 331.52 605.04 332.29C606.59 333.07 608.16 333.82 609.73 334.55C609.91 334.61 610.09 334.69 610.26 334.78C610.43 334.87 610.59 334.97 610.74 335.09C610.89 335.2 611.04 335.33 611.17 335.47C611.31 335.61 611.43 335.75 611.54 335.91C611.62 336.13 611.68 336.35 611.72 336.58C611.76 336.81 611.77 337.04 611.77 337.27C611.76 337.5 611.73 337.73 611.68 337.96C611.63 338.19 611.56 338.41 611.47 338.62C609.61 344.94 607.65 351.23 605.58 357.48C603.5 363.74 601.33 369.96 599.04 376.14C596.76 382.32 594.37 388.46 591.88 394.55C589.39 400.65 586.8 406.71 584.1 412.72C583.97 413.08 583.82 413.43 583.65 413.77C583.48 414.11 583.29 414.44 583.08 414.76C582.87 415.08 582.64 415.38 582.4 415.67C582.15 415.96 581.89 416.24 581.61 416.5C581.3 416.71 580.98 416.9 580.65 417.07C580.32 417.24 579.98 417.39 579.63 417.52C579.28 417.65 578.92 417.76 578.56 417.85C578.2 417.93 577.83 418 577.46 418.04C570.15 419.39 562.74 420.08 555.31 420.09C547.88 420.09 540.46 419.43 533.15 418.1C525.84 416.76 518.67 414.77 511.72 412.14C504.77 409.51 498.07 406.25 491.71 402.41C490.93 401.96 490.17 401.49 489.42 401C488.67 400.5 487.94 399.99 487.23 399.45C486.51 398.91 485.81 398.35 485.13 397.77C484.45 397.19 483.78 396.58 483.14 395.96C482.55 395.34 481.98 394.69 481.43 394.03C480.88 393.36 480.35 392.68 479.85 391.98C479.35 391.28 478.87 390.56 478.42 389.83C477.97 389.1 477.54 388.35 477.14 387.59C465.14 365.79 466.52 339.39 468.21 314.59C469.95 314.76 471.69 314.86 473.43 314.89C475.18 314.92 476.93 314.88 478.67 314.76C480.41 314.65 482.14 314.46 483.87 314.2C485.6 313.95 487.31 313.62 489.01 313.22C489.85 313.05 490.68 312.85 491.5 312.6C492.33 312.36 493.14 312.08 493.93 311.76C494.73 311.45 495.51 311.09 496.27 310.71C497.04 310.32 497.78 309.9 498.51 309.44C504.16 305.62 507.19 299.03 509.67 292.67C510.62 290.22 511.53 287.75 512.4 285.26C513.27 282.78 514.1 280.28 514.88 277.76C515.67 275.25 516.41 272.73 517.11 270.19C517.81 267.65 518.47 265.1 519.08 262.54C519.96 258.88 561 266.24 565.13 267.16C569.68 268.16 580.52 268.85 582 274.16C583.3 278.73 578.74 287.8 578.07 292.7Z" />
	<path id="Layer" class="shp7" d="M425.09 503.06C451.09 501.8 476.51 510.51 500.86 519.81C525.21 529.11 550.65 538.04 576.65 539.81C578.48 533.14 580.43 526.44 582.88 519.97C583.48 518.35 584.12 516.74 584.81 515.16C585.5 513.57 586.23 512 587.01 510.46C587.78 508.91 588.6 507.39 589.47 505.89C590.33 504.39 591.23 502.92 592.18 501.47C595.33 496.77 599.06 492.4 601.46 487.29C606.19 477.2 605.27 465.53 604.73 454.41C604.19 443.29 609.64 407.73 616.01 398.58C611.5 391.72 606.9 395.22 602.39 388.37C599.99 384.7 590.94 394.16 587.39 391.53C583.66 388.75 579.05 387.45 574.51 386.39C549.22 380.39 522.65 380.01 498.08 371.54C491.6 369.31 484.64 366.54 478.15 368.67C477.51 368.91 476.88 369.18 476.27 369.47C475.65 369.76 475.04 370.08 474.45 370.41C473.85 370.74 473.27 371.1 472.7 371.48C472.13 371.85 471.58 372.25 471.04 372.67L455.72 383.52C454.3 384.52 453.42 384.44 452.72 386.05C451.81 388.19 450.98 390.36 450.23 392.57C449.49 394.77 448.83 397 448.25 399.26C447.68 401.51 447.2 403.79 446.8 406.08C446.4 408.38 446.1 410.68 445.88 413C444.88 423.83 445.79 434.76 444.57 445.56C444.19 448.64 443.71 451.7 443.12 454.75C442.54 457.79 441.85 460.82 441.06 463.82C440.26 466.81 439.37 469.79 438.38 472.72C437.39 475.66 436.3 478.57 435.11 481.43C434.37 483.27 433.6 485.11 432.81 486.93C432.02 488.75 431.21 490.57 430.37 492.37C429.54 494.18 428.68 495.97 427.8 497.75C426.92 499.53 426.02 501.3 425.09 503.06L425.09 503.06Z" />
	<path id="Layer" class="shp9" d="M557.58 297.05C523.07 297.05 495.18 269.16 495.18 234.65C495.18 200.14 523.07 172.25 557.58 172.25C592.09 172.25 619.98 200.14 619.98 234.65C619.98 269.16 592.09 297.05 557.58 297.05Z" />
	<path id="Layer" class="shp7" d="M475.48 309.42C475.98 328.09 477.04 346.72 478.66 365.31C478.99 369.15 479.51 373.31 482.31 375.99C480.77 377.01 479.16 377.94 477.51 378.78C475.86 379.61 474.16 380.35 472.43 381C470.69 381.64 468.92 382.18 467.12 382.62C465.33 383.06 463.51 383.4 461.67 383.63C457.21 371.41 452.67 358.74 453.51 345.75C454.15 335.67 457.81 326.09 458.7 316.05C458.96 313.18 458.21 309.2 461.2 307.65C462.34 307.06 475.48 309.29 475.48 309.42Z" />
	<path id="Layer" class="shp7" d="M439.76 493.77C435.47 494.16 431.76 496.77 428.25 499.26C386.54 529.58 349.54 566.69 320.7 609.47C313.52 620.12 306.84 631.12 299.2 641.47C278.92 668.92 252.39 691.07 225.3 711.81C232.37 711.49 240.3 711.69 247.38 711.37C251.28 711.19 255.25 711.02 259.05 711.93C262.85 712.84 266.54 715.02 268.37 718.47C270.06 721.65 270.51 726.12 273.88 727.39C274.26 727.49 274.64 727.57 275.03 727.62C275.42 727.67 275.81 727.7 276.21 727.71C276.6 727.71 276.99 727.7 277.38 727.65C277.77 727.61 278.16 727.54 278.54 727.45C281.37 727.06 284.22 726.89 287.07 726.92C289.92 726.95 292.77 727.19 295.58 727.64C298.4 728.09 301.18 728.75 303.9 729.61C306.62 730.46 309.27 731.52 311.84 732.77C311.94 730.63 312.09 728.49 312.29 726.36C312.5 724.23 312.76 722.1 313.08 719.98C313.4 717.87 313.78 715.76 314.21 713.66C314.64 711.56 315.12 709.47 315.66 707.4C316.86 702.62 318.42 697.94 320.02 693.27C323.61 682.82 327.44 672.36 333.3 662.98C334.95 660.35 336.75 657.81 338.7 655.39C340.64 652.96 342.72 650.65 344.94 648.47C347.15 646.29 349.49 644.24 351.94 642.33C354.39 640.42 356.95 638.65 359.61 637.04C360.35 636.55 361.12 636.09 361.91 635.68C362.7 635.26 363.5 634.88 364.33 634.55C365.16 634.21 366 633.92 366.85 633.67C367.71 633.41 368.57 633.21 369.45 633.04C378.26 631.75 386.76 638.12 390.83 646.04C394.9 653.96 395.52 663.14 396.06 672.04C396.73 682.94 397.39 693.84 398.06 704.75C398.3 708.7 398.61 712.87 400.83 716.15C402.57 712.79 406.75 712.15 410 710.21C416.21 706.52 423.18 702.69 430.26 704.14C438.15 705.74 443.26 713.31 446.77 720.55C448.3 723.72 449.7 726.95 450.97 730.23C452.23 733.51 453.36 736.85 454.35 740.23C455.33 743.6 456.17 747.02 456.87 750.47C457.57 753.92 458.13 757.4 458.54 760.89C473.29 752.99 482.88 737.96 486.38 721.59C488.38 712.34 488.03 702.72 489.76 693.42C490.33 690.39 491.11 687.41 492.09 684.49C493.08 681.58 494.27 678.73 495.65 675.98C497.04 673.24 498.62 670.59 500.38 668.06C502.14 665.53 504.07 663.13 506.17 660.88C524.8 640.93 554.44 634.1 572.77 613.88C575.18 611.21 577.44 608.16 577.88 604.59C578.4 600.32 576.2 596.17 576.1 591.87C575.94 584.59 581.56 578.69 586.1 573.02C587.19 571.67 588.25 570.28 589.25 568.86C590.26 567.44 591.23 565.99 592.15 564.51C593.07 563.03 593.94 561.52 594.77 559.99C595.59 558.46 596.37 556.9 597.1 555.32C598.64 551.97 599.99 548.32 599.67 544.68C599.35 541.04 596.95 537.26 593.33 536.52C586.71 535.17 580.13 543.87 574.18 540.65C573.8 540.41 573.45 540.15 573.1 539.86C572.76 539.57 572.44 539.26 572.14 538.94C571.84 538.61 571.56 538.26 571.31 537.89C571.05 537.53 570.82 537.15 570.62 536.75C569.68 535.21 568.8 533.63 568 532.01C567.19 530.4 566.46 528.75 565.81 527.07C565.15 525.38 564.57 523.67 564.07 521.94C563.56 520.21 563.14 518.45 562.79 516.68C547.79 511.21 532 509.27 516.54 505.35C509.96 503.68 503.54 501.46 497.02 499.55C478.59 494.14 458.97 494.06 439.76 493.77Z" />
	<path id="Layer" class="shp7" d="M425.09 503.06C451.09 501.8 476.51 510.51 500.86 519.81C525.21 529.11 550.65 538.04 576.65 539.81C578.48 533.14 580.43 526.44 582.88 519.97C580.55 518.64 577.72 517.7 575.7 516.73C572.61 515.24 569.51 513.79 566.38 512.38C563.25 510.98 560.1 509.62 556.93 508.31C553.76 506.99 550.57 505.73 547.37 504.51C544.16 503.29 540.94 502.12 537.7 500.99C531.18 498.73 524.59 496.65 517.94 494.76C511.3 492.88 504.6 491.18 497.86 489.69C491.12 488.19 484.34 486.88 477.52 485.77C470.71 484.67 463.86 483.75 456.99 483.04C449.75 482.28 442.47 481.76 435.19 481.46C434.44 483.3 433.67 485.13 432.87 486.95C432.08 488.78 431.26 490.59 430.41 492.39C429.57 494.19 428.71 495.98 427.82 497.76C426.93 499.54 426.02 501.3 425.09 503.06L425.09 503.06Z" />
	<path id="Layer" class="shp8" d="M425.09 503.06C451.09 501.8 476.51 510.51 500.86 519.81C525.21 529.11 550.65 538.04 576.65 539.81C578.48 533.14 580.43 526.44 582.88 519.97C580.55 518.64 577.72 517.7 575.7 516.73C572.61 515.24 569.51 513.79 566.38 512.38C563.25 510.98 560.1 509.62 556.93 508.31C553.76 506.99 550.57 505.73 547.37 504.51C544.16 503.29 540.94 502.12 537.7 500.99C531.18 498.73 524.59 496.65 517.94 494.76C511.3 492.88 504.6 491.18 497.86 489.69C491.12 488.19 484.34 486.88 477.52 485.77C470.71 484.67 463.86 483.75 456.99 483.04C449.75 482.28 442.47 481.76 435.19 481.46C434.44 483.3 433.67 485.13 432.87 486.95C432.08 488.78 431.26 490.59 430.41 492.39C429.57 494.19 428.71 495.98 427.82 497.76C426.93 499.54 426.02 501.3 425.09 503.06L425.09 503.06Z" />
	<path id="Layer" class="shp9" d="M607.78 336.92C614 336.67 620.2 337.64 626.04 339.78C631.89 341.91 637.25 345.17 641.84 349.38C646.43 353.58 650.14 358.64 652.78 364.28C655.42 369.91 656.93 376.01 657.22 382.22C657.25 383.75 657.24 385.28 657.19 386.81C657.14 388.34 657.04 389.87 656.9 391.4C656.76 392.92 656.58 394.44 656.35 395.96C656.12 397.47 655.85 398.98 655.54 400.48C649.62 432.73 637.54 465.43 644.73 497.42C646.84 506.86 650.6 515.98 651.3 525.62C651.35 526.79 651.39 527.96 651.39 529.12C651.4 530.29 651.39 531.46 651.35 532.63C651.32 533.8 651.26 534.96 651.18 536.13C651.1 537.29 651 538.46 650.87 539.62L647.03 585.75C652.43 591.75 659.68 597.17 665.59 602.75C671.5 608.33 676.88 614.86 678.78 622.75C678.99 623.79 679.17 624.84 679.31 625.89C679.45 626.94 679.55 628 679.62 629.06C679.68 630.12 679.71 631.18 679.7 632.24C679.69 633.3 679.64 634.36 679.56 635.42C679.46 637.58 679.22 639.96 677.65 641.42C676.08 642.88 672.8 642.52 672.49 640.42C671.41 643.24 666.94 643 664.95 640.73C662.96 638.46 662.63 635.23 662.04 632.26C661.8 631.03 661.49 629.8 661.13 628.6C660.77 627.39 660.35 626.21 659.87 625.04C659.39 623.88 658.86 622.74 658.27 621.62C657.68 620.51 657.03 619.43 656.34 618.38C655.07 620.26 655.34 622.73 655.09 624.98C654.84 627.23 653.5 629.84 651.23 629.83C648.49 629.83 647.45 626.3 647.08 623.58C646.57 619.75 645.76 615.85 643.72 612.58C641.68 609.31 638.18 606.69 634.31 606.65C634.6 606.74 634.87 606.86 635.13 607.03C635.38 607.19 635.62 607.38 635.82 607.6C636.02 607.83 636.2 608.07 636.34 608.34C636.47 608.61 636.58 608.9 636.64 609.19C635.66 609.55 634.66 609.85 633.64 610.09C632.62 610.33 631.59 610.5 630.55 610.61C629.51 610.71 628.46 610.76 627.41 610.73C626.37 610.71 625.32 610.62 624.29 610.47C623.7 610.4 623.11 610.29 622.53 610.15C621.95 610.01 621.37 609.84 620.81 609.64C620.25 609.43 619.7 609.19 619.17 608.92C618.64 608.65 618.12 608.35 617.62 608.02C614.28 605.65 612.5 601.58 611.87 597.53C611.24 593.48 611.57 589.36 611.62 585.26C611.82 568.16 606.78 551.49 601.79 535.13C597.95 522.55 594.52 510.13 595.69 497.05C596.25 490.8 597.79 484.69 598.69 478.48C601.92 455.98 596.69 432.06 605.11 410.93C605.99 408.7 607.05 406.39 606.77 404.01C606.67 403.49 606.53 402.98 606.36 402.47C606.18 401.97 605.98 401.48 605.74 401.01C605.5 400.53 605.24 400.07 604.94 399.63C604.64 399.2 604.31 398.78 603.96 398.38C602.93 397.04 601.86 395.73 600.74 394.47C599.62 393.2 598.45 391.98 597.25 390.79C596.04 389.61 594.8 388.47 593.51 387.37C592.22 386.27 590.9 385.22 589.54 384.22C589.81 383.85 590.06 383.47 590.29 383.07C590.53 382.68 590.74 382.28 590.94 381.87C591.14 381.45 591.32 381.03 591.48 380.6C591.64 380.18 591.78 379.74 591.9 379.3C595.69 364.83 598.47 348.65 607.78 336.92Z" />
	<path id="Layer" class="shp7" d="M614.14 346.59C613.63 348.64 613.16 350.69 612.71 352.76C612.27 354.82 611.85 356.89 611.47 358.96C611.09 361.04 610.73 363.12 610.41 365.2C610.09 367.29 609.8 369.38 609.54 371.47C607.74 388.72 611.46 387.52 606.92 404.25C595.85 398.43 583.42 411.55 572.35 405.73C571.35 405.18 570.15 404.48 569.95 403.32C569.94 403.06 569.96 402.8 570.01 402.54C570.05 402.29 570.13 402.03 570.22 401.79C570.31 401.55 570.43 401.32 570.57 401.09C570.71 400.87 570.87 400.67 571.05 400.48C572.75 398.16 574.37 395.78 575.9 393.34C577.44 390.9 578.88 388.41 580.24 385.88C581.59 383.34 582.86 380.75 584.03 378.12C585.21 375.49 586.29 372.82 587.27 370.12C590.38 361.55 592.54 352.62 596.51 344.42C598.85 339.57 601.98 334.86 606.62 332.13C609.19 330.62 619.62 327.79 620.62 332.79C620.89 334.24 617.62 337.06 616.87 338.42C616.55 339.06 616.25 339.72 615.98 340.39C615.7 341.05 615.45 341.73 615.22 342.41C614.99 343.09 614.79 343.78 614.61 344.48C614.43 345.18 614.27 345.88 614.14 346.59L614.14 346.59Z" />
	<path id="Layer" class="shp3" d="M588.25 428.2C564.4 428.2 545.13 408.93 545.13 385.08C545.13 361.23 564.4 341.96 588.25 341.96C612.1 341.96 631.37 361.23 631.37 385.08C631.37 408.93 612.1 428.2 588.25 428.2Z" />
	<path id="Layer" class="shp3" d="M715.86 428.2C692.01 428.2 672.74 408.93 672.74 385.08C672.74 361.23 692.01 341.96 715.86 341.96C739.71 341.96 758.98 361.23 758.98 385.08C758.98 408.93 739.71 428.2 715.86 428.2Z" />
	<path id="Layer" class="shp2" d="M705.37 428.2C687.32 428.2 672.73 411.5 672.73 390.84C672.73 370.18 687.32 353.48 705.37 353.48C723.42 353.48 738.01 370.18 738.01 390.84C738.01 411.5 723.42 428.2 705.37 428.2Z" />
	<path id="Layer" class="shp2" d="M598.74 428.2C580.69 428.2 566.1 411.5 566.1 390.84C566.1 370.18 580.69 353.48 598.74 353.48C616.79 353.48 631.38 370.18 631.38 390.84C631.38 411.5 616.79 428.2 598.74 428.2Z" />
	<path id="Layer" class="shp3" d="M805.62 560.81C804.38 574.23 793.62 587.33 780.14 587.41C774.14 587.41 768.47 585.06 763.14 582.33C758.52 579.96 753.96 577.22 750.61 573.25C750.12 572.67 749.67 572.08 749.24 571.47C743.9 563.89 742.78 553.83 738.13 545.67C729.78 531 711.94 525.06 695.52 521.15C691.19 520.12 686.85 519.14 682.5 518.23C678.14 517.31 673.78 516.45 669.4 515.65C665.03 514.84 660.64 514.1 656.24 513.41C651.85 512.73 647.44 512.1 643.03 511.53C631.03 509.97 618.84 508.85 606.82 510.33C581.24 513.48 558.14 528.16 532.67 531.52C531.81 531.63 530.95 531.73 530.08 531.82C522.08 532.62 513.97 532.22 505.95 532.96C492.6 534.19 479.46 538.59 466.08 537.68C452.7 536.77 438.25 528.05 437.3 514.68C436.63 505.26 443.03 496.45 451.13 491.6C459.23 486.75 468.8 485.1 478.13 483.75C502.9 480.16 528.33 477.88 551.13 467.64C559.29 463.98 567.03 459.33 575.46 456.35C576.4 456.01 577.34 455.7 578.3 455.42C579.25 455.14 580.22 454.89 581.19 454.67C582.16 454.45 583.13 454.25 584.11 454.09C585.09 453.92 586.08 453.79 587.07 453.68C588.3 453.54 589.55 453.47 590.79 453.48C592.03 453.49 593.27 453.57 594.5 453.73C595.74 453.89 596.96 454.12 598.16 454.42C599.37 454.73 600.55 455.1 601.71 455.55L589.71 460.11L706.88 451.84L711.5 451.52C717.05 451.13 722.7 450.74 728.13 451.97C737.47 454.09 745.13 460.79 751.04 468.35C756.95 475.91 761.36 484.5 766.9 492.35C774.69 503.35 784.56 512.71 792.55 523.55C800.54 534.39 806.85 547.4 805.62 560.81Z" />
	<path id="Layer" class="shp2" d="M751.01 543.55C751.02 545.88 751 548.22 750.93 550.55C750.87 552.88 750.76 555.21 750.62 557.54C750.47 559.87 750.29 562.19 750.07 564.52C749.84 566.84 749.58 569.16 749.28 571.47C743.94 563.89 742.82 553.83 738.17 545.67C729.82 531 711.98 525.06 695.56 521.15C691.23 520.12 686.89 519.14 682.54 518.23C678.18 517.31 673.82 516.45 669.44 515.65C665.07 514.84 660.68 514.1 656.28 513.41C651.89 512.73 647.48 512.1 643.07 511.53C631.07 509.97 618.88 508.85 606.86 510.33C581.28 513.48 558.18 528.16 532.71 531.52C538.25 491.96 558.26 466.62 587.16 453.67C602.85 446.67 621.16 443.27 641.25 443.27C665.91 443.27 688.66 444.27 706.99 451.83C733.71 462.83 751.01 487.71 751.01 543.55Z" />
	<path id="Layer" class="shp3" d="M745.39 547.54C745.39 568.67 742.86 585.19 738.24 598.09C726.9 629.72 703.05 639.63 673.37 642.61C663.37 643.61 652.76 643.83 641.72 643.83C638.25 643.86 634.77 643.75 631.31 643.53C627.84 643.3 624.39 642.95 620.95 642.47C617.51 641.99 614.09 641.39 610.69 640.66C607.29 639.93 603.92 639.08 600.59 638.11C575.84 630.66 555.53 615.75 545.2 592.49C539.63 579.97 536.96 565.04 538.04 547.54C542.18 480.78 584.46 451.22 641.72 451.22C698.98 451.22 745.39 457.15 745.39 547.54Z" />
	<path id="Layer" class="shp2" d="M652.06 511.5C607.31 511.5 571.13 475.32 571.13 430.57C571.13 385.82 607.31 349.64 652.06 349.64C696.81 349.64 732.99 385.82 732.99 430.57C732.99 475.32 696.81 511.5 652.06 511.5Z" />
	<path id="Layer" class="shp3" d="M652.06 506.77C607.31 506.77 571.13 470.59 571.13 425.84C571.13 381.09 607.31 344.91 652.06 344.91C696.81 344.91 732.99 381.09 732.99 425.84C732.99 470.59 696.81 506.77 652.06 506.77Z" />
	<path id="Layer" class="shp11" d="M641.72 403.7C639.43 403.7 637.58 401.85 637.58 399.56C637.58 397.27 639.43 395.42 641.72 395.42C644.01 395.42 645.86 397.27 645.86 399.56C645.86 401.85 644.01 403.7 641.72 403.7Z" />
	<path id="Layer" class="shp11" d="M661.8 403.7C659.51 403.7 657.66 401.85 657.66 399.56C657.66 397.27 659.51 395.42 661.8 395.42C664.09 395.42 665.94 397.27 665.94 399.56C665.94 401.85 664.09 403.7 661.8 403.7Z" />
	<path id="Layer" class="shp2" d="M652.06 462.81C628.7 462.81 609.82 450.64 609.82 435.59C609.82 420.54 628.7 408.37 652.06 408.37C675.42 408.37 694.3 420.54 694.3 435.59C694.3 450.64 675.42 462.81 652.06 462.81Z" />
	<path id="Layer" class="shp12" d="M652.06 461.29C630.01 461.29 612.18 449.8 612.18 435.59C612.18 421.38 630.01 409.89 652.06 409.89C674.11 409.89 691.94 421.38 691.94 435.59C691.94 449.8 674.11 461.29 652.06 461.29Z" />
	<path id="Layer" class="shp2" d="M600.59 638.11C575.84 630.66 555.53 615.75 545.2 592.49C546.07 592.19 546.95 591.92 547.85 591.69C548.74 591.47 549.64 591.27 550.55 591.12C551.46 590.97 552.38 590.85 553.3 590.78C554.22 590.7 555.14 590.66 556.06 590.66C577.17 590.66 594.98 610.69 600.59 638.11Z" />
	<path id="Layer" class="shp3" d="M600.07 660.67C600.07 697.04 579.31 726.53 553.7 726.53C536.35 726.53 521.23 713.01 513.28 692.97C512.28 690.4 511.4 687.79 510.64 685.14C509.89 682.49 509.26 679.81 508.76 677.1C508.25 674.39 507.88 671.66 507.63 668.92C507.38 666.18 507.27 663.42 507.28 660.67C507.28 624.29 528.05 594.8 553.66 594.8C576.77 594.8 595.94 618.8 599.45 650.26C599.55 651.12 599.64 651.99 599.72 652.85C599.79 653.72 599.86 654.59 599.91 655.46C599.96 656.32 600 657.19 600.03 658.06C600.05 658.93 600.07 659.8 600.07 660.67Z" />
	<path id="Layer" class="shp2" d="M600.07 660.67C600.07 697.04 579.31 726.53 553.7 726.53C536.35 726.53 521.23 713.01 513.28 692.97C514.54 666.64 541.14 645.6 573.78 645.6C575.97 645.59 578.17 645.68 580.35 645.86C582.54 646.05 584.71 646.34 586.87 646.73C589.03 647.12 591.17 647.6 593.29 648.18C595.4 648.77 597.49 649.45 599.54 650.22C599.63 651.09 599.72 651.96 599.79 652.83C599.85 653.7 599.91 654.57 599.96 655.44C600 656.31 600.03 657.18 600.05 658.05C600.07 658.93 600.08 659.8 600.07 660.67Z" />
	<path id="Layer" class="shp3" d="M577.33 746.62C543.85 746.62 516.78 724.57 516.78 697.29C516.78 670.01 543.85 647.96 577.33 647.96C610.81 647.96 637.88 670.01 637.88 697.29C637.88 724.57 610.81 746.62 577.33 746.62Z" />
	<path id="Layer" class="shp12" d="M581.9 746.62C550.95 746.62 525.93 725.96 525.93 700.39C525.93 674.82 550.95 654.16 581.9 654.16C612.85 654.16 637.87 674.82 637.87 700.39C637.87 725.96 612.85 746.62 581.9 746.62Z" />
	<path id="Layer" class="shp2" d="M601.84 694.7C596.45 694.7 592.09 689.26 592.09 682.52C592.09 675.78 596.45 670.34 601.84 670.34C607.23 670.34 611.59 675.78 611.59 682.52C611.59 689.26 607.23 694.7 601.84 694.7Z" />
	<path id="Layer" class="shp3" d="M601.84 692.86C597.27 692.86 593.57 688.24 593.57 682.52C593.57 676.8 597.27 672.18 601.84 672.18C606.41 672.18 610.11 676.8 610.11 682.52C610.11 688.24 606.41 692.86 601.84 692.86Z" />
	<path id="Layer" class="shp2" d="M572.9 703.79C567.23 703.79 562.65 698.9 562.65 692.86C562.65 686.82 567.23 681.93 572.9 681.93C578.57 681.93 583.15 686.82 583.15 692.86C583.15 698.9 578.57 703.79 572.9 703.79Z" />
	<path id="Layer" class="shp3" d="M572.9 702.31C568 702.31 564.04 698.09 564.04 692.86C564.04 687.63 568 683.41 572.9 683.41C577.8 683.41 581.76 687.63 581.76 692.86C581.76 698.09 577.8 702.31 572.9 702.31Z" />
	<path id="Layer" class="shp2" d="M556.95 726.55C550.91 726.55 546.02 722.58 546.02 717.67C546.02 712.76 550.91 708.79 556.95 708.79C562.99 708.79 567.88 712.76 567.88 717.67C567.88 722.58 562.99 726.55 556.95 726.55Z" />
	<path id="Layer" class="shp3" d="M556.95 725.35C551.72 725.35 547.5 721.92 547.5 717.67C547.5 713.42 551.72 709.99 556.95 709.99C562.18 709.99 566.4 713.42 566.4 717.67C566.4 721.92 562.18 725.35 556.95 725.35Z" />
	<path id="Layer" class="shp2" d="M607.37 735.7C596.94 744.77 584.69 747.69 579.95 742.24C575.21 736.79 579.8 725.06 590.23 715.99C600.65 706.93 612.91 704 617.65 709.45C622.39 714.9 617.79 726.64 607.37 735.7Z" />
	<path id="Layer" class="shp3" d="M606.8 735.05C597.06 743.53 585.61 746.26 581.18 741.17C576.75 736.08 581.05 725.11 590.79 716.64C600.54 708.17 611.99 705.43 616.42 710.52C620.84 715.61 616.55 726.58 606.8 735.05Z" />
	<path id="Layer" class="shp2" d="M738.24 598.09C726.9 629.72 703.05 639.63 673.37 642.61C678.17 613.51 696.56 591.84 718.51 591.84C720.26 591.85 722.01 592 723.74 592.27C725.47 592.55 727.18 592.95 728.84 593.48C730.51 594.01 732.14 594.66 733.71 595.43C735.29 596.21 736.8 597.09 738.24 598.09Z" />
	<path id="Layer" class="shp3" d="M768.43 660.67C768.45 663.67 768.32 666.66 768.03 669.65C767.74 672.63 767.3 675.6 766.7 678.54C766.11 681.48 765.36 684.38 764.47 687.24C763.57 690.1 762.53 692.92 761.34 695.67C753.14 714.21 738.61 726.53 722.06 726.53C696.45 726.53 675.69 697.04 675.69 660.67C675.69 659.81 675.7 658.96 675.72 658.1C675.74 657.25 675.78 656.39 675.82 655.54C675.87 654.68 675.93 653.83 676 652.98C676.07 652.12 676.15 651.27 676.24 650.42C679.71 618.91 698.9 594.8 722.06 594.8C747.67 594.8 768.43 624.29 768.43 660.67Z" />
	<path id="Layer" class="shp2" d="M761.34 695.52L761.34 695.67C753.14 714.21 738.61 726.53 722.06 726.53C696.45 726.53 675.69 697.04 675.69 660.67C675.69 659.81 675.7 658.96 675.72 658.1C675.74 657.25 675.78 656.39 675.82 655.54C675.87 654.68 675.93 653.83 676 652.98C676.07 652.12 676.15 651.27 676.24 650.42C678.2 649.72 680.2 649.1 682.22 648.57C684.24 648.04 686.28 647.6 688.33 647.25C690.39 646.9 692.46 646.64 694.54 646.47C696.62 646.29 698.7 646.21 700.79 646.22C734.23 646.22 761.34 668.27 761.34 695.52Z" />
	<path id="Layer" class="shp3" d="M698.43 746.62C664.95 746.62 637.88 724.57 637.88 697.29C637.88 670.01 664.95 647.96 698.43 647.96C731.91 647.96 758.98 670.01 758.98 697.29C758.98 724.57 731.91 746.62 698.43 746.62Z" />
	<path id="Layer" class="shp12" d="M693.26 746.62C662.63 746.62 637.88 725.96 637.88 700.39C637.88 674.82 662.63 654.16 693.26 654.16C723.89 654.16 748.64 674.82 748.64 700.39C748.64 725.96 723.89 746.62 693.26 746.62Z" />
	<path id="Layer" class="shp2" d="M673.91 694.93C668.42 694.93 663.99 689.38 663.99 682.52C663.99 675.66 668.42 670.11 673.91 670.11C679.4 670.11 683.83 675.66 683.83 682.52C683.83 689.38 679.4 694.93 673.91 694.93Z" />
	<path id="Layer" class="shp3" d="M673.91 692.86C669.34 692.86 665.64 688.24 665.64 682.52C665.64 676.8 669.34 672.18 673.91 672.18C678.48 672.18 682.18 676.8 682.18 682.52C682.18 688.24 678.48 692.86 673.91 692.86Z" />
	<path id="Layer" class="shp2" d="M702.86 703.79C697.19 703.79 692.61 698.9 692.61 692.86C692.61 686.82 697.19 681.93 702.86 681.93C708.53 681.93 713.11 686.82 713.11 692.86C713.11 698.9 708.53 703.79 702.86 703.79Z" />
	<path id="Layer" class="shp3" d="M702.86 702.31C697.96 702.31 694 698.09 694 692.86C694 687.63 697.96 683.41 702.86 683.41C707.76 683.41 711.72 687.63 711.72 692.86C711.72 698.09 707.76 702.31 702.86 702.31Z" />
	<path id="Layer" class="shp2" d="M718.81 726.55C712.77 726.55 707.88 722.58 707.88 717.67C707.88 712.76 712.77 708.79 718.81 708.79C724.85 708.79 729.74 712.76 729.74 717.67C729.74 722.58 724.85 726.55 718.81 726.55Z" />
	<path id="Layer" class="shp3" d="M718.81 725.35C713.58 725.35 709.36 721.92 709.36 717.67C709.36 713.42 713.58 709.99 718.81 709.99C724.04 709.99 728.26 713.42 728.26 717.67C728.26 721.92 724.04 725.35 718.81 725.35Z" />
	<path id="Layer" class="shp2" d="M695.82 742.37C691.08 747.82 678.82 744.9 668.4 735.84C657.97 726.77 653.38 715.04 658.12 709.59C662.86 704.14 675.11 707.06 685.54 716.13C695.96 725.19 700.56 736.92 695.82 742.37Z" />
	<path id="Layer" class="shp3" d="M694.59 741.3C690.16 746.39 678.71 743.66 668.96 735.19C659.22 726.71 654.92 715.75 659.35 710.66C663.77 705.57 675.23 708.3 684.97 716.78C694.72 725.25 699.01 736.21 694.59 741.3Z" />
	<path id="Layer" class="shp9" d="M464.03 311.46C461.54 310.62 458.99 309.98 456.41 309.55C453.82 309.12 451.2 308.9 448.57 308.88C445.95 308.87 443.33 309.06 440.74 309.47C438.14 309.87 435.59 310.48 433.09 311.29C428.18 312.9 423.33 315.46 420.41 319.74C418.07 323.17 417.19 327.37 416.41 331.44C413.93 343.76 411.52 356.09 409.19 368.44C406.49 382.69 408.76 397.29 411.88 411.44C415 425.59 417.5 440.14 419.28 454.65C419.49 456.03 419.66 457.41 419.8 458.8C419.94 460.19 420.04 461.58 420.1 462.97C420.17 464.36 420.2 465.76 420.19 467.15C420.18 468.54 420.14 469.94 420.06 471.33C419.52 477.61 417.63 483.89 418.64 490.11C420.5 501.54 431.25 509.03 441.07 515.17C444.7 525.91 456.07 531.67 466.07 536.96C471.31 539.73 476.49 542.6 481.61 545.57C486.73 548.54 491.8 551.62 496.79 554.8C501.79 557.97 506.73 561.25 511.6 564.62C516.46 568 521.26 571.47 525.99 575.04C532.68 580.04 539.29 585.37 546.88 588.92C553.98 592.25 561.7 593.92 569.36 595.64L593.36 600.9C600.5 599.9 608.36 597.9 614.85 594.74C618.63 592.87 622.8 589.46 621.85 585.36C621.18 582.6 618.43 580.96 615.93 579.63C607.93 575.4 599.93 571.13 591.18 569.01C586.34 567.83 581.36 567.33 576.45 566.43C575.12 566.2 573.81 565.93 572.5 565.62C571.19 565.32 569.89 564.97 568.6 564.59C567.31 564.21 566.03 563.8 564.76 563.35C563.49 562.89 562.24 562.4 561 561.88C548.61 556.51 538.53 547.03 528.73 537.73C519.46 528.95 511.28 519.61 502.39 510.45C501.36 509.46 500.32 508.48 499.26 507.51C498.21 506.54 497.14 505.59 496.06 504.66C494.98 503.72 493.88 502.8 492.78 501.89C491.67 500.99 490.55 500.1 489.42 499.22C486.94 497.18 484.5 495.1 482.08 492.99C479.66 490.88 477.27 488.73 474.92 486.55C472.56 484.37 470.24 482.15 467.94 479.91C465.65 477.66 463.39 475.38 461.16 473.07C456.16 467.85 459.28 458.89 459.73 451.65C460.39 441.15 458.01 430.73 456.01 420.4C455.01 415.24 454.11 410 454.44 404.76C454.94 396.76 458.25 389.28 460.7 381.67C462.03 377.51 463.12 373.28 463.95 368.99C464.79 364.71 465.37 360.38 465.69 356.02C466.01 351.67 466.08 347.3 465.89 342.94C465.69 338.58 465.24 334.23 464.54 329.92C463.54 323.73 462.42 317.52 464.03 311.46Z" />
	<path id="Layer" class="shp6" d="M611.33 232.46C628.65 229.22 637.06 207.31 632.05 190.41C627.04 173.51 612.95 161.07 598.93 150.41C576.04 132.97 550.23 117.22 521.54 115.11C492.85 113 461.16 128.79 453.54 156.52C448.6 174.47 454.15 194.16 448.62 211.94C440.62 237.62 412.13 252.01 401.74 276.82C389.41 306.3 406.06 339.04 410.54 370.68C418.6 427.68 380.45 487.75 325.4 504.68C345.74 507.49 366.4 509.92 386.75 507.32C407.1 504.72 427.46 496.57 441.07 481.2C447.52 473.91 452.67 464.89 461.38 460.54C466.58 457.95 472.49 457.32 478.16 456.08C511.01 448.92 537.02 417.78 538.23 384.19C539.11 359.8 528.37 336.45 526.39 312.12C524.21 285.25 533.63 258.77 550.49 238C572.85 210.47 583.64 237.64 611.33 232.46Z" />
	<path id="Layer" class="shp8" d="M632.05 191.55C627.05 174.65 612.95 162.2 598.93 151.55C597.02 150.08 595.08 148.63 593.13 147.21C591.18 145.79 589.21 144.39 587.22 143.02C585.23 141.66 583.23 140.31 581.2 139C579.18 137.68 577.14 136.39 575.08 135.13C577.38 136.8 579.66 138.5 581.91 140.21C595.91 150.88 610.03 163.34 615.04 180.21C620.05 197.08 611.64 219.02 594.31 222.26C566.63 227.44 555.83 200.26 533.47 227.79C516.61 248.56 507.19 275.04 509.38 301.91C511.38 326.24 522.09 349.59 521.21 373.98C520 407.57 493.99 438.71 461.15 445.87C455.47 447.11 449.56 447.74 444.36 450.33C435.65 454.68 430.5 463.7 424.05 470.99C410.44 486.36 390.1 494.51 369.74 497.11C367.62 497.37 365.5 497.59 363.37 497.76C361.24 497.93 359.11 498.06 356.98 498.14C354.84 498.23 352.71 498.26 350.57 498.26C348.44 498.25 346.3 498.2 344.17 498.11C342.67 498.9 341.15 499.65 339.62 500.37C338.08 501.08 336.53 501.76 334.96 502.41C333.4 503.06 331.82 503.67 330.22 504.24C328.63 504.81 327.02 505.35 325.4 505.85C345.74 508.66 366.4 511.1 386.75 508.5C407.1 505.9 427.46 497.75 441.07 482.37C447.52 475.08 452.67 466.07 461.38 461.72C466.58 459.12 472.49 458.5 478.16 457.26C511.01 450.09 537.02 418.96 538.23 385.36C539.11 360.97 528.37 337.62 526.39 313.3C524.21 286.43 533.63 259.94 550.49 239.18C572.85 211.65 583.64 238.82 611.33 233.65C628.65 230.36 637.06 208.45 632.05 191.55Z" />
</svg>